name Walk5.mot
datacolumns 19
datarows 15
range 2.41000000 2.48000000
endheader

                time	   L_ground_force_vx	   L_ground_force_vy	   L_ground_force_vz	   L_ground_force_px	   L_ground_force_py	   L_ground_force_pz	   R_ground_force_vx	   R_ground_force_vy	   R_ground_force_vz	   R_ground_force_px	   R_ground_force_py	   R_ground_force_pz	   L_ground_torque_x	   L_ground_torque_y	   L_ground_torque_z	   R_ground_torque_x	   R_ground_torque_y	   R_ground_torque_z	
          2.41000000	         -0.00000000	         -0.00000000	          0.00000000	          0.00000000	          0.00000000	          0.00000000	          0.01434062	         -0.48558398	         -0.05402781	         -0.00985644	          0.00000000	         -0.00197578	          0.00000000	         -0.00000000	          0.00000000	          0.00000000	         -0.00200568	          0.00000000	
          2.41500000	         -0.00000000	         -0.00000000	          0.00000000	          0.00000000	          0.00000000	          0.00000000	          0.00342469	         -0.02418318	         -0.00601447	         -0.00177603	          0.00000000	         -0.00034513	          0.00000000	         -0.00000000	          0.00000000	          0.00000000	         -0.00021639	          0.00000000	
          2.42000000	          0.00000000	         -0.00000000	          0.00000000	          0.00000000	          0.00000000	          0.00000000	         -0.00059178	          0.04588231	          0.00416909	          0.00056944	          0.00000000	          0.00011721	          0.00000000	         -0.00000000	          0.00000000	          0.00000000	          0.00015671	          0.00000000	
          2.42500000	          0.00000000	          0.00000000	         -0.00000000	         -0.00000000	          0.00000000	         -0.00000000	         -0.00053826	          0.01554417	          0.00182662	          0.00035307	          0.00000000	          0.00007046	          0.00000000	          0.00000000	          0.00000000	          0.00000000	          0.00006761	          0.00000000	
          2.43000000	          0.00000000	          0.00000000	         -0.00000000	         -0.00000000	          0.00000000	         -0.00000000	         -0.00008735	         -0.00060174	          0.00006196	          0.00003763	          0.00000000	          0.00000712	          0.00000000	          0.00000000	          0.00000000	          0.00000000	          0.00000203	          0.00000000	
          2.43500000	         -0.00000000	         -0.00000000	         -0.00000000	         -0.00000000	          0.00000000	         -0.00000000	          0.00003381	         -0.00185618	         -0.00018076	         -0.00002772	          0.00000000	         -0.00000564	          0.00000000	         -0.00000000	          0.00000000	          0.00000000	         -0.00000676	          0.00000000	
          2.44000000	         -0.00000000	         -0.00000000	          0.00000000	          0.00000000	          0.00000000	          0.00000000	          0.00001900	         -0.00045739	         -0.00005762	         -0.00001189	          0.00000000	         -0.00000236	          0.00000000	         -0.00000000	          0.00000000	          0.00000000	         -0.00000213	          0.00000000	
          2.44500000	         -0.00000000	         -0.00000000	          0.00000000	          0.00000000	          0.00000000	          0.00000000	          0.00000168	          0.00007262	          0.00000339	         -0.00000034	          0.00000000	         -0.00000005	          0.00000000	         -0.00000000	          0.00000000	          0.00000000	          0.00000014	          0.00000000	
          2.45000000	          0.00000000	          0.00000000	         -0.00000000	         -0.00000000	          0.00000000	          0.00000000	         -0.00000159	          0.00007008	          0.00000721	          0.00000119	          0.00000000	          0.00000024	          0.00000000	          0.00000000	          0.00000000	          0.00000000	          0.00000027	          0.00000000	
          2.45500000	          0.00000000	          0.00000000	         -0.00000000	         -0.00000000	          0.00000000	         -0.00000000	         -0.00000063	          0.00001185	          0.00000166	          0.00000037	          0.00000000	          0.00000007	          0.00000000	          0.00000000	          0.00000000	          0.00000000	          0.00000006	          0.00000000	
          2.46000000	          0.00000000	          0.00000000	         -0.00000000	         -0.00000000	          0.00000000	         -0.00000000	         -0.00000000	         -0.00000427	         -0.00000031	         -0.00000002	          0.00000000	         -0.00000001	          0.00000000	          0.00000000	          0.00000000	          0.00000000	         -0.00000001	          0.00000000	
          2.46500000	         -0.00000000	         -0.00000000	          0.00000000	          0.00000000	          0.00000000	          0.00000000	          0.00000007	         -0.00000249	         -0.00000027	         -0.00000005	          0.00000000	         -0.00000001	          0.00000000	         -0.00000000	          0.00000000	          0.00000000	         -0.00000001	          0.00000000	
          2.47000000	         -0.00000000	         -0.00000000	          0.00000000	          0.00000000	          0.00000000	          0.00000000	          0.00000002	         -0.00000024	         -0.00000004	         -0.00000001	          0.00000000	         -0.00000000	          0.00000000	         -0.00000000	          0.00000000	          0.00000000	         -0.00000000	          0.00000000	
          2.47500000	         -0.00000000	         -0.00000000	          0.00000000	          0.00000000	          0.00000000	          0.00000000	         -0.00000000	          0.00000020	          0.00000002	          0.00000000	          0.00000000	          0.00000000	          0.00000000	         -0.00000000	          0.00000000	          0.00000000	          0.00000000	          0.00000000	
          2.48000000	          0.00000000	          0.00000000	         -0.00000000	         -0.00000000	          0.00000000	         -0.00000000	         -0.00000000	          0.00000008	          0.00000001	          0.00000000	          0.00000000	          0.00000000	          0.00000000	          0.00000000	          0.00000000	          0.00000000	          0.00000000	          0.00000000	
